<?xml version="1.0" encoding="UTF-8" standalone="no"?>
<!DOCTYPE svg PUBLIC "-//W3C//DTD SVG 1.1//EN" "http://www.w3.org/Graphics/SVG/1.1/DTD/svg11.dtd">
<svg width="100%" height="100%" viewBox="0 0 1341 544" version="1.1" xmlns="http://www.w3.org/2000/svg" xmlns:xlink="http://www.w3.org/1999/xlink" xml:space="preserve" xmlns:serif="http://www.serif.com/" style="fill-rule:evenodd;clip-rule:evenodd;stroke-linejoin:round;stroke-miterlimit:2;">
    <g transform="matrix(1,0,0,1,-242.178,-725.238)">
        <path d="M1582.42,725.238L1582.42,1133.18C1582.42,1208.24 1521.49,1269.17 1446.44,1269.17L242.178,1269.17L242.178,725.238L1582.42,725.238Z" style="fill:rgb(222,230,238);"/>
        <g transform="matrix(1.89727,0,0,1.89727,-941.838,-383.914)">
            <text x="646.861px" y="752.797px" style="font-family:'ArialMT', 'Arial', sans-serif;font-size:50px;">Designed Coded Supported</text>
        </g>
        <g transform="matrix(1.76992,0,0,1.76992,-1705.81,-266.541)">
            <text x="1125.52px" y="800.217px" style="font-family:'ArialMT', 'Arial', sans-serif;font-size:50px;">By</text>
            <g transform="matrix(50,0,0,50,1361.7,800.217)">
            </g>
            <text x="1197.76px" y="800.217px" style="font-family:'Arial-BoldMT', 'Arial', sans-serif;font-weight:700;font-size:50px;">People</text>
            <rect x="1197.76" y="805.514" width="163.94" height="5.249"/>
        </g>
        <g transform="matrix(2.7378,0,0,2.7378,-674.868,-945.489)">
            <text x="350.964px" y="674.472px" style="font-family:'BerlinSansFB-Reg', 'Berlin Sans FB', sans-serif;font-size:50px;">Proudly</text>
            <g transform="matrix(50,0,0,50,800.817,674.472)">
            </g>
            <text x="528.478px" y="674.472px" style="font-family:'ArialMT', 'Arial', sans-serif;font-size:50px;">GenAI Free</text>
        </g>
        <g transform="matrix(0.82684,0,0,1,482.403,339.412)">
            <rect x="876.036" y="572.938" width="335.06" height="24.658" style="fill:rgb(241,89,12);"/>
        </g>
    </g>
</svg>
